<mxfile host="app.diagrams.net" modified="2023-08-14T08:19:05.102Z" agent="Mozilla/5.0 (Macintosh; Intel Mac OS X 10_15_7) AppleWebKit/537.36 (KHTML, like Gecko) Chrome/115.0.0.0 Safari/537.36" etag="rvYhiKCT8l-aiAI7318_" version="21.6.6" type="github">
  <diagram name="第 1 页" id="uJNZyxgSVUJfB3R79Ev_">
    <mxGraphModel dx="794" dy="655" grid="0" gridSize="10" guides="0" tooltips="0" connect="1" arrows="1" fold="1" page="0" pageScale="1" pageWidth="1169" pageHeight="827" math="0" shadow="0">
      <root>
        <mxCell id="0" />
        <mxCell id="1" parent="0" />
        <mxCell id="vJ39QT0AVeiXCdLjbEt--3" value="" style="edgeStyle=orthogonalEdgeStyle;rounded=0;orthogonalLoop=1;jettySize=auto;html=1;" edge="1" parent="1" source="vJ39QT0AVeiXCdLjbEt--1" target="vJ39QT0AVeiXCdLjbEt--2">
          <mxGeometry relative="1" as="geometry" />
        </mxCell>
        <mxCell id="vJ39QT0AVeiXCdLjbEt--14" value="Feign" style="edgeLabel;html=1;align=center;verticalAlign=middle;resizable=0;points=[];" vertex="1" connectable="0" parent="vJ39QT0AVeiXCdLjbEt--3">
          <mxGeometry y="4" relative="1" as="geometry">
            <mxPoint as="offset" />
          </mxGeometry>
        </mxCell>
        <mxCell id="vJ39QT0AVeiXCdLjbEt--1" value="tb-sales-tool #MsgBulkDetailConsumer" style="rounded=0;whiteSpace=wrap;html=1;" vertex="1" parent="1">
          <mxGeometry x="520" y="290" width="120" height="60" as="geometry" />
        </mxCell>
        <mxCell id="vJ39QT0AVeiXCdLjbEt--5" value="" style="edgeStyle=orthogonalEdgeStyle;rounded=0;orthogonalLoop=1;jettySize=auto;html=1;" edge="1" parent="1" source="vJ39QT0AVeiXCdLjbEt--2" target="vJ39QT0AVeiXCdLjbEt--4">
          <mxGeometry relative="1" as="geometry" />
        </mxCell>
        <mxCell id="vJ39QT0AVeiXCdLjbEt--15" value="Feign" style="edgeLabel;html=1;align=center;verticalAlign=middle;resizable=0;points=[];" vertex="1" connectable="0" parent="vJ39QT0AVeiXCdLjbEt--5">
          <mxGeometry x="-0.225" y="4" relative="1" as="geometry">
            <mxPoint as="offset" />
          </mxGeometry>
        </mxCell>
        <mxCell id="vJ39QT0AVeiXCdLjbEt--2" value="ss-robot-facade" style="whiteSpace=wrap;html=1;rounded=0;" vertex="1" parent="1">
          <mxGeometry x="720" y="290" width="120" height="60" as="geometry" />
        </mxCell>
        <mxCell id="vJ39QT0AVeiXCdLjbEt--7" value="" style="edgeStyle=orthogonalEdgeStyle;rounded=0;orthogonalLoop=1;jettySize=auto;html=1;" edge="1" parent="1" source="vJ39QT0AVeiXCdLjbEt--4">
          <mxGeometry relative="1" as="geometry">
            <mxPoint x="1120" y="320" as="targetPoint" />
          </mxGeometry>
        </mxCell>
        <mxCell id="vJ39QT0AVeiXCdLjbEt--16" value="MQ" style="edgeLabel;html=1;align=center;verticalAlign=middle;resizable=0;points=[];" vertex="1" connectable="0" parent="vJ39QT0AVeiXCdLjbEt--7">
          <mxGeometry x="-0.205" y="4" relative="1" as="geometry">
            <mxPoint as="offset" />
          </mxGeometry>
        </mxCell>
        <mxCell id="vJ39QT0AVeiXCdLjbEt--4" value="task-center" style="whiteSpace=wrap;html=1;rounded=0;" vertex="1" parent="1">
          <mxGeometry x="920" y="290" width="120" height="60" as="geometry" />
        </mxCell>
        <mxCell id="vJ39QT0AVeiXCdLjbEt--11" value="" style="edgeStyle=orthogonalEdgeStyle;rounded=0;orthogonalLoop=1;jettySize=auto;html=1;" edge="1" parent="1" source="vJ39QT0AVeiXCdLjbEt--8" target="vJ39QT0AVeiXCdLjbEt--10">
          <mxGeometry relative="1" as="geometry">
            <Array as="points">
              <mxPoint x="1120" y="320" />
              <mxPoint x="1120" y="320" />
            </Array>
          </mxGeometry>
        </mxCell>
        <mxCell id="vJ39QT0AVeiXCdLjbEt--17" value="Feign" style="edgeLabel;html=1;align=center;verticalAlign=middle;resizable=0;points=[];" vertex="1" connectable="0" parent="vJ39QT0AVeiXCdLjbEt--11">
          <mxGeometry x="0.225" relative="1" as="geometry">
            <mxPoint as="offset" />
          </mxGeometry>
        </mxCell>
        <mxCell id="vJ39QT0AVeiXCdLjbEt--8" value="robot-server" style="whiteSpace=wrap;html=1;rounded=0;" vertex="1" parent="1">
          <mxGeometry x="1120" y="290" width="120" height="60" as="geometry" />
        </mxCell>
        <mxCell id="vJ39QT0AVeiXCdLjbEt--13" value="" style="edgeStyle=orthogonalEdgeStyle;rounded=0;orthogonalLoop=1;jettySize=auto;html=1;" edge="1" parent="1" source="vJ39QT0AVeiXCdLjbEt--10" target="vJ39QT0AVeiXCdLjbEt--12">
          <mxGeometry relative="1" as="geometry">
            <Array as="points">
              <mxPoint x="1500" y="300" />
              <mxPoint x="1500" y="300" />
            </Array>
          </mxGeometry>
        </mxCell>
        <mxCell id="vJ39QT0AVeiXCdLjbEt--18" value="MQTT" style="edgeLabel;html=1;align=center;verticalAlign=middle;resizable=0;points=[];" vertex="1" connectable="0" parent="vJ39QT0AVeiXCdLjbEt--13">
          <mxGeometry x="-0.15" y="1" relative="1" as="geometry">
            <mxPoint y="11" as="offset" />
          </mxGeometry>
        </mxCell>
        <mxCell id="vJ39QT0AVeiXCdLjbEt--20" value="" style="edgeStyle=orthogonalEdgeStyle;rounded=0;orthogonalLoop=1;jettySize=auto;html=1;" edge="1" parent="1" source="vJ39QT0AVeiXCdLjbEt--10" target="vJ39QT0AVeiXCdLjbEt--19">
          <mxGeometry relative="1" as="geometry" />
        </mxCell>
        <mxCell id="vJ39QT0AVeiXCdLjbEt--10" value="robot-cloud" style="whiteSpace=wrap;html=1;rounded=0;" vertex="1" parent="1">
          <mxGeometry x="1320" y="290" width="120" height="60" as="geometry" />
        </mxCell>
        <mxCell id="vJ39QT0AVeiXCdLjbEt--25" value="" style="edgeStyle=orthogonalEdgeStyle;rounded=0;orthogonalLoop=1;jettySize=auto;html=1;" edge="1" parent="1" source="vJ39QT0AVeiXCdLjbEt--12" target="vJ39QT0AVeiXCdLjbEt--10">
          <mxGeometry relative="1" as="geometry">
            <Array as="points">
              <mxPoint x="1509" y="336" />
              <mxPoint x="1509" y="336" />
            </Array>
          </mxGeometry>
        </mxCell>
        <mxCell id="vJ39QT0AVeiXCdLjbEt--26" value="返回结果" style="edgeLabel;html=1;align=center;verticalAlign=middle;resizable=0;points=[];" vertex="1" connectable="0" parent="vJ39QT0AVeiXCdLjbEt--25">
          <mxGeometry x="-0.2" y="5" relative="1" as="geometry">
            <mxPoint as="offset" />
          </mxGeometry>
        </mxCell>
        <mxCell id="vJ39QT0AVeiXCdLjbEt--12" value="javaCient" style="whiteSpace=wrap;html=1;rounded=0;" vertex="1" parent="1">
          <mxGeometry x="1520" y="290" width="120" height="60" as="geometry" />
        </mxCell>
        <mxCell id="vJ39QT0AVeiXCdLjbEt--30" value="" style="edgeStyle=orthogonalEdgeStyle;rounded=0;orthogonalLoop=1;jettySize=auto;html=1;entryX=0.5;entryY=1;entryDx=0;entryDy=0;" edge="1" parent="1" source="vJ39QT0AVeiXCdLjbEt--19" target="vJ39QT0AVeiXCdLjbEt--2">
          <mxGeometry relative="1" as="geometry">
            <mxPoint x="1240" y="460" as="targetPoint" />
            <Array as="points">
              <mxPoint x="1280" y="460" />
              <mxPoint x="1280" y="461" />
              <mxPoint x="780" y="461" />
            </Array>
          </mxGeometry>
        </mxCell>
        <mxCell id="vJ39QT0AVeiXCdLjbEt--31" value="失败的话将其转为普通群发进行发送，成功的话将status字段置为&quot;成功&quot;" style="edgeLabel;html=1;align=center;verticalAlign=middle;resizable=0;points=[];" vertex="1" connectable="0" parent="vJ39QT0AVeiXCdLjbEt--30">
          <mxGeometry x="0.0276" y="-1" relative="1" as="geometry">
            <mxPoint as="offset" />
          </mxGeometry>
        </mxCell>
        <mxCell id="vJ39QT0AVeiXCdLjbEt--19" value="极速群发的状态" style="whiteSpace=wrap;html=1;rounded=0;" vertex="1" parent="1">
          <mxGeometry x="1320" y="430" width="120" height="60" as="geometry" />
        </mxCell>
      </root>
    </mxGraphModel>
  </diagram>
</mxfile>
